<svg id="Layer_1" xmlns="http://www.w3.org/2000/svg" viewBox="0 0 355.99 411.64"><defs><style>.cls-1{fill:#ffe09d;}.cls-2{fill:#ffa401;}.cls-3{fill:#a585db;}.cls-10,.cls-4,.cls-9{fill:none;}.cls-4{stroke:#fff9ed;stroke-width:9px;}.cls-10,.cls-11,.cls-13,.cls-4,.cls-9{stroke-linecap:round;}.cls-4,.cls-9{stroke-miterlimit:10;}.cls-5{fill:#ffc25f;}.cls-6{fill:#d88b0f;}.cls-7{fill:#d1ac62;}.cls-8{fill:#8671b5;}.cls-9{stroke:#f4e977;stroke-width:8px;}.cls-10,.cls-11,.cls-13{stroke:#232323;stroke-linejoin:round;stroke-width:5px;}.cls-11{fill:#fff;}.cls-12{fill:#232323;}.cls-13{fill:#ffc13a;}</style></defs><title>capy_money</title><polyline class="cls-1" points="211.97 226.42 156.95 218.2 102.71 385.16 230.91 411.48 245.93 370.52 272.39 285.07 278.39 261.9 211.97 226.42"/><path class="cls-2" d="M168.4,76.6l-8.88-13.26-1.08-14.41-3.28-17.42L149,25.45l-9.5.68L132.2,37.56l-3,9.73,6,20.19,8.47,11.19L153,83.36l5,3.37L138.43,109,119.56,136l-8.08,13.89-2.64,11.44,2.82,4.1h6.71l1.67,2.62-3.11,6.39-12.29,1.85L89.4,186.88,77.77,208.34l-1.28,21.2,2.58,18.84L56,289.24,42.64,315.88l-3.2,12.9,1.68,2.87,3.36-.83L49,327.25l7.79-6.76,4.16-2.91,1.4,2.57-3.46,22.2,1.51,12.78L65.27,364s1.76,2.87,1.35,3l-7.62,3-5.13,2.25L40.59,378,27.36,389.35l4.75,13.14,6.08,2.13h11l6.93,1.06L66.26,404l1.87.67,3.31,2.72v4.81L81,410.88l10.51-2.24,16.76-7.56,5.78-2.17,4.11-3.9,6.2-5.66,5.05-1.39,49.7-146,4.77-4,8.29,1.21,42.35,6.17,2.91,3.42.82,9,8.51,9,9.6,1.92,7.23-2.38,2.69,4.38,6.44,6.47,8.1,0,5.9-1.75,3.08.93,5.89,5.51,8.81-.77L271.53,385.53l6.28,2.8,8.09,5.37,5.42,6L302.6,406l19,4.62,10.57,2.48,3.88-3.25v-3.07l10-1.08,14,1,11.34-1.18,5.87-5.16,1.81-3.75-5.87-10-15.34-9.1-13.68-6.15-3.69-3.81.76-4.26,5.54-5.92,2.31-11.38-4.25-15.23-1.13-16.07,12.7,11.78,6.24,4.77,3.9-2.41-9.93-27.56-25.16-48.28-13.58-28.72-15.1-25.23-7.64-18.34-8.82-12,.21-5.15,5.94,1.13,4.1-1.9-3.8-16.3-9.11-16.23-19.93-24.8-14.16-17,5.54-5.88,9.05-5.46,8.53-9.09,2.64-10.47L276.78,49l-2.12-12.7-5-7.63-11.86-3.63a59.61,59.61,0,0,0-4.8,4.48c-.41.72-4,12.35-4,12.35L248.51,55l-.82,11.07-5.12,8-5.18,4.3-16.2-2-9.94-2.15-12.95-.41L182.24,76.7l-9.15,2L168.4,76.6" transform="translate(-25.14 -21.2)"/><path class="cls-3" d="M56.22,288.56s13.44-18.39,34.55-7.78,31.57,29.87,28.49,61.84c0,0,7.58-3.07,15.37-1.43S144.77,347,144.77,347l-10.45,37.12L132,386.69,122.68,389l-4.12,5.06-5.45,5-20.19,8.55-18,3.5-3.26-2.75-3-4.45-10.36.14-19.67-1.69-11.08-4.3L28.4,391l5.12-6.84,8.61-6.35,16.51-8.3,6.82-1.56-2-7.44-2-6.24-1.7-9.95-.17-8.13,2.48-12,1.75-5.61-2.9-1.42-5.81,5.37-8.9,6.79-5,1.59-1.46-3.23L41,319.05l6.3-12.1,6.92-11.57Z" transform="translate(-25.14 -21.2)"/><path class="cls-3" d="M351.41,290.82s-20.49,2.72-38.94,27-18.29,35.05-18.29,35.05-11-1.12-13.35,3.44-6.52,20.58-6.52,20.58L273,385.15l4.95,2.41,6.4,1.56L290.7,401l8.91,2.05,10.05,3.69,7.17,2.15,13.42,2.56,4.3,1.12L336.5,406l3.55-.63,15.31.32,11.47-1.12,10.91-5.21s1.7-5,1.7-5.55S372,383.2,372,383.2l-8.4-4.64-18.65-9.7-5.73-3.81L346,353.88l1.63-16.07s-2.15-6.46-2.15-6.77-1.5-8.38-1.5-8.38l-1.9-5.78.53-2.64,11.28,8.91,7.36,6.7,5.36-.34.18-7.69-4-9.63-6.87-12-3.68-5.91-.88-3.43" transform="translate(-25.14 -21.2)"/><ellipse class="cls-3" cx="177.64" cy="113.86" rx="32.28" ry="18.91"/><line class="cls-4" x1="164.98" y1="227.73" x2="150.69" y2="269.62"/><line class="cls-4" x1="177.84" y1="230.83" x2="169.54" y2="255.02"/><line class="cls-4" x1="213.54" y1="366.51" x2="205.2" y2="391.88"/><line class="cls-4" x1="219.96" y1="396.4" x2="237.38" y2="344.58"/><path class="cls-5" d="M134.76,30.06S146,28.54,146.47,44.68s15.21,25.21,15.21,25.21l-1.84-12.61s-1.54-15.21-1.69-15.83-3.38-12.14-3.38-12.14l-4.46-5.61L141.57,26" transform="translate(-25.14 -21.2)"/><path class="cls-5" d="M252.22,35s12-1.08,11.68,15.21,8.16,16.22,8.16,16.22l5.22-13.14-.61-11.69-2.49-7.67-4.44-8-7.68-2.23-7,2.76Z" transform="translate(-25.14 -21.2)"/><path class="cls-5" d="M175.38,78.24s19.66,3.18,28.73,3.18,25-3.18,25-3.18l-11.91-5.58-20.89,1.52-14.08.17" transform="translate(-25.14 -21.2)"/><path class="cls-5" d="M267.17,109.78s17.89,45.46,28.22,48-5.27-15.95-5.27-15.95" transform="translate(-25.14 -21.2)"/><path class="cls-5" d="M116.31,172.89s30.51,22.48,38.94,20.3-10.23-14-10.23-14l-8.41-3.86-10.89.16" transform="translate(-25.14 -21.2)"/><path class="cls-6" d="M145.86,222.46" transform="translate(-25.14 -21.2)"/><path class="cls-6" d="M93.51,224.83l46-2.37,5.3,11.64s-10.68,10.76-25.63,8.92S96.2,229.44,96.2,229.44" transform="translate(-25.14 -21.2)"/><path class="cls-6" d="M72.14,257.43s8.39,24.22,29.39,22.07,16-8.83,16-8.83l-10.46,3.62-7.28-6.68L94,266l-3.89.86-8.34-10.53-4.91-7.82-4.68,8.94" transform="translate(-25.14 -21.2)"/><path class="cls-6" d="M241.56,238.54S282.81,262.9,309.25,268l-.39,5.53-4.69,5.23h-5.76l-6.5-.72-6-4.33-4.6,3.28-7.91-.48L267.55,272l-1.8-5.73-9.32,2.88-8.67-1.93-8-7.92-1.68-8.63,1.68-10.76" transform="translate(-25.14 -21.2)"/><path class="cls-7" d="M225.47,245.12s-1.91,31,36.74,39.19S299.94,292,299.94,292l3.78-8-2.6-3.31-8.35-1.92-3.63-5.23-6.51,2.3-6.41,2.93-6.87-4.45-3.6-5.78,1.19-2.2-5.34,3.53-10-1.23-4.85-1.91-7.2-8.08L237.67,252l-.94-3.11.94-2.27-4.73-1.54" transform="translate(-25.14 -21.2)"/><polyline class="cls-7" points="111.78 352.71 207.1 402.83 102.13 382.42 111.78 353.64"/><path class="cls-8" d="M61.16,337.81s19.37,25.05,35,23.05,24.44,22.44,37.05,15.53l-3.08,11.32-8.67,2.77L115,399s-28.13.36-44.73-11.27-14.91-15.63-14.91-15.63l11.53-3.69,1.23-1.53-4.92-7.07-3.85-5.54.16-7.84Z" transform="translate(-25.14 -21.2)"/><path class="cls-8" d="M346.81,335.19s-19.43,23.21-39.41,22.75-32.14,16-32.14,16L273,383.77l9.43,5,6,7.28s20.25,5,39.31-5,21.21-18.45,21.21-18.45l-9-5,3-5.94,5-9.55-.54-6-.78-12.6" transform="translate(-25.14 -21.2)"/><line class="cls-9" x1="226.44" y1="174.79" x2="229.54" y2="185.52"/><line class="cls-9" x1="238.24" y1="170.79" x2="241.35" y2="181.52"/><line class="cls-9" x1="103.72" y1="261.42" x2="98.85" y2="271.47"/><line class="cls-9" x1="114.22" y1="266.44" x2="109.35" y2="276.5"/><path class="cls-10" d="M78.24,245.79C60.1,280.28,43.53,313,40.56,323.36c-6.45,22.44,26-11.89,26-11.89s-17.83,38.74,1.64,54.31S100,368.45,100,368.45s-6,30.94,31.35,18.24" transform="translate(-25.14 -21.2)"/><path class="cls-10" d="M275.19,386.69c37.3,12.7,31.36-18.24,31.36-18.24s12.29,12.91,31.76-2.67S340,311.47,340,311.47s32.49,34.33,26,11.89-82-160.07-82-160.07C330.53,178.66,246.5,84,246.5,84c18.24-1.85,27.25-15.37,30.12-31.77s-7.58-29.1-16-28.49S248.75,36.64,247.73,55.9,233.18,78,233.18,78a103.07,103.07,0,0,0-15-2.81A125.94,125.94,0,0,0,189.56,75,103.56,103.56,0,0,0,173.37,78s-13.53-2.87-14.55-22.14-4.51-31.56-12.92-32.18-18.85,12.1-16,28.49S141.81,82.13,160.05,84c0,0-84,94.68-37.51,79.31,0,0-1.82,3.32-4.92,9" transform="translate(-25.14 -21.2)"/><ellipse class="cls-11" cx="163.07" cy="125.57" rx="25.16" ry="21.27" transform="translate(-27.14 227.28) rotate(-74.27)"/><ellipse class="cls-11" cx="240.82" cy="124.64" rx="21.27" ry="25.16" transform="translate(-49.91 48.76) rotate(-15.73)"/><ellipse class="cls-12" cx="148.01" cy="101.26" rx="10.08" ry="16.78"/><ellipse class="cls-12" cx="205.61" cy="101.26" rx="10.08" ry="16.78"/><path class="cls-12" d="M221.47,144c0,4.8-8.57,8.68-19.13,8.68a35.36,35.36,0,0,1-12.27-2c-4.19-1.59-6.85-4-6.85-6.66,0-4.8,8.56-8.69,19.12-8.69S221.47,139.19,221.47,144Z" transform="translate(-25.14 -21.2)"/><ellipse class="cls-12" cx="177.21" cy="130.76" rx="9.81" ry="6.97"/><path class="cls-10" d="M174.24,161.06s4.1.4,8.27-4.49" transform="translate(-25.14 -21.2)"/><path class="cls-10" d="M222.53,156.57s6,3.86,9.53,3.15" transform="translate(-25.14 -21.2)"/><path class="cls-10" d="M179.35,159.41s2.65,10.4,7.5,10.34,16-7.22,16.36-11.56" transform="translate(-25.14 -21.2)"/><path class="cls-10" d="M227.3,159s-1.17,10.9-6.63,11.07-16.69-5.37-17.46-12.29" transform="translate(-25.14 -21.2)"/><path class="cls-10" d="M195.2,99.78s.43,3.94-2.66,10" transform="translate(-25.14 -21.2)"/><path class="cls-10" d="M208.87,99.78s-.43,3.94,2.66,10" transform="translate(-25.14 -21.2)"/><line class="cls-10" x1="176.89" y1="78.06" x2="176.89" y2="89.11"/><path class="cls-10" d="M286.5,218.63s-32-7.58-41,10.86-10.45,31.36,2.25,37.71,19.88-4.71,19.88-4.71-3.89,11.88,6.15,14.14a13.62,13.62,0,0,0,14.76-5.94s.41,9.45,10,10.05,12.91-7,15.37-18.46" transform="translate(-25.14 -21.2)"/><path class="cls-10" d="M186.43,206.73s-2.92,1.81-3.92,8.26,3,8.3,4.69,8.3,7.07-1.84,7.69-5.22,0,10.45,10.14,9.22,8.92-10.2,8.92-10.2,6.45,3.74,10,1.44,4.3-11.22,1.53-12.92" transform="translate(-25.14 -21.2)"/><path class="cls-10" d="M68.23,365.78s-41.4,13.94-40.58,29.31,44.06,8.4,44.06,8.4v8s42.43-3.71,49.4-21.73" transform="translate(-25.14 -21.2)"/><path class="cls-10" d="M338,366.9s41.4,13.93,40.58,29.3-44.06,8.41-44.06,8.41v8s-42.42-3.71-49.39-21.74" transform="translate(-25.14 -21.2)"/><path class="cls-10" d="M107.07,296.2s-14.25,8-14.14,15.78,6.14,8.61,17.83-.51c0,0-8.92,19.67,3.79,18.86s13.32-15.58,13.32-15.58" transform="translate(-25.14 -21.2)"/><path class="cls-10" d="M94.15,222.73s2,12.19,11.79,11.47,5-9.12,5-9.12,7.48,13.74,16.09,10.87,8.91-16.6,8.91-16.6,12.51,9,17.32-3.39,8.1-39.09-27.56-42.78-47.5,28.59-49,40.89,3.23,67.48,20.75,49.11c0,0,1.31,12.3,12.07,11.07s8.61-7.3,8.61-7.3" transform="translate(-25.14 -21.2)"/><polyline class="cls-10" points="213.35 223.97 154.99 215.46 101.5 382.29 232.26 409.14 279.6 259.57"/><ellipse class="cls-13" cx="217.8" cy="330.1" rx="54.85" ry="50.04" transform="translate(-184.12 429.04) rotate(-74.27)"/><path class="cls-12" d="M199,339.3a2.13,2.13,0,0,0-1.63-1.56l-.11,0h0a2.1,2.1,0,0,0-2.47,1.64l-1.43,7.1a2.09,2.09,0,0,1-2.47,1.64l-7.37-1.48a2.1,2.1,0,0,1-1.64-2.47l8.68-43a2.1,2.1,0,0,1,2.47-1.64L205.22,302c10.56,2.14,16.19,9.68,13.89,21l-.25,1.25c-1.15,5.7-4,9.56-7.84,11.76a2.1,2.1,0,0,0-1,2.31l2.75,11.11a2.1,2.1,0,0,1-2.45,2.56L203,350.54a2.09,2.09,0,0,1-1.62-1.56ZM197.51,326a2.09,2.09,0,0,0,1.64,2.47l.21,0c4,.82,7.12-1.66,8.11-6.57l.21-1c1-5.19-.89-8.39-4.92-9.21l-.22,0a2.09,2.09,0,0,0-2.47,1.64Z" transform="translate(-25.14 -21.2)"/><path class="cls-12" d="M226.56,308.46a2.1,2.1,0,0,1,2.47-1.64l12.18,2.46c10.35,2.09,16.23,9.47,13.89,21l-.25,1.25c-2.33,11.56-10.56,16.16-21,14.06l-.71-.15a2.1,2.1,0,0,0-2.47,1.64l-1.34,6.62a2.09,2.09,0,0,1-2.47,1.64l-7.37-1.49a2.1,2.1,0,0,1-1.64-2.47Zm6.91,24.92a2.09,2.09,0,0,0,1.64,2.47l.21,0c4,.81,7.15-1.8,8.14-6.71l.21-1c1-4.85-1-8.41-4.92-9.21l-.22,0a2.09,2.09,0,0,0-2.47,1.64Z" transform="translate(-25.14 -21.2)"/><path class="cls-10" d="M139.92,221.44s2.4,10,7.32,16" transform="translate(-25.14 -21.2)"/></svg>