<svg id="Layer_1" data-name="Layer 1" xmlns="http://www.w3.org/2000/svg" viewBox="0 0 253.4 321.81"><defs><style>.cls-1,.cls-11{fill:#fff;}.cls-2{fill:#fe8d3e;}.cls-3{fill:#0e223b;}.cls-4{fill:#e56566;}.cls-5{fill:#ffaf78;}.cls-6{fill:#e86e1c;}.cls-7{fill:#ddd;}.cls-8{fill:#ff9fa4;}.cls-9{fill:#bc4b51;}.cls-10,.cls-13{fill:none;}.cls-10,.cls-11,.cls-13{stroke:#232323;stroke-linecap:round;stroke-linejoin:round;}.cls-10,.cls-11{stroke-width:5px;}.cls-12{fill:#232323;}.cls-13{stroke-width:4px;}</style></defs><title>doggo_happy</title><path class="cls-1" d="M119.52,174l1.27,35.36L123,241.58l8.17,13.62.74,11.23-3.64,17,1.54,7.22,5,.7,6.88-4.4,5.78-4.14-.92,10.23,5.21,20,15.38,26.68,16.77,12.47L201,358.44l8.17.48,3,16,6.66,19.74,4.24,3.41H227l3.79-4.12,5-13.13,2.44-11,1.06-12.63,2.68-1.75,20.72-8L280,338l13.18-11.31,9.32-12.35,6.08-5.83,18.15-8.69L340.1,290l4.89-7.58-1.9-3.87L333.87,277l-15.4,1.37-2-.94,0-3.38,2.23-2.07,6.29-12.17,6.23-9.32,3.77-11.2,3.47-9.6,3-11.93,1.31-11.39s-.28-9.21-.32-9.59S341,189.3,341,189.3L338.13,187l-2.84,1.88-7.43,22L322,224.93,314.51,241l-3.36,3.89-2.7,1.35-7.52-4.18-3.08-7.57-8.66-1-30.55-25.91L245,180l-14.64-14.3,7.49-24.51-16.34-25.31-52.93-7.71-24.45,29.5L119.52,174" transform="translate(-94.08 -79.63)"/><path class="cls-2" d="M146.83,242.59l-13.59,22-6.4-2-18.47-20-9.47-18.8-2.27-10.44,3.71-18.74,3.86-21.06,5.29-19.14,8.64-26.77,10-16,10.51-10.84,9.61-6.46,22-9.31,16.88-2.8,19.27,1.38,16.21,4.85,13.92,7,9.75,6.72,15.61,15.25L280.2,143,291,165l6.69,24.38.2,21.95-8.11,23.29-10.51,18.13-10.43,11-9,1.8L250,244.94l-5.62-16.28-5.63-18.31-4.84-17-3.38-12.56s-.48-4.21-1.61-4.22c-55.83-.75-40.18-42.19-55-41.26-17.59,1.11-10.73,43.75-55.4,43.62l.94,23.62,4,15.62,4.63,9,10.57,11,5.42,2.6" transform="translate(-94.08 -79.63)"/><path class="cls-3" d="M286.39,241.16s9.38,3.23,16.37,29.87,4.09,36.63,4.09,36.63l6.2-24.25.57-13.15-1.41-14.55-5.49-17-11.49-12.24-8.84,14.67" transform="translate(-94.08 -79.63)"/><polyline class="cls-4" points="60.44 100.77 60.08 116.84 63.31 126.45 66.28 130.69 69.85 132.61 75.79 134.14 81.79 134.14 89.21 130.32 94.42 121.88 95.7 107.65 94.7 99.29 91.94 94.91 84.87 93.92 80.44 90.92 74.52 88.69 70.23 89.27 64.17 92.78 62.19 97.95 61.15 97.89"/><path class="cls-5" d="M161.45,88.11s72.85-15,132.76,83.28l-12.38-27.13-20-26.86L245.7,102.13l-5.62-4.47-10.85-7.53L216.65,86.3l-18.16-3.82-17.38-.35-18.78,5.62h0l-.88.36" transform="translate(-94.08 -79.63)"/><path class="cls-6" d="M236,200.53s21.83,47.13,28.47,52.56,21.19-13.85,21.19-13.85l-17.48,24.9-4.73,1.36-5-2.71-4.11-8.68-5.45-14.23L241.74,215" transform="translate(-94.08 -79.63)"/><path class="cls-6" d="M117.87,187s-5.42,45.78.69,68.25l8.28,7.41L131,263.9l2.6-1.47,2.8-7.57,3.58-5.2,3.66-3.4,1.62-3.49-3.83-5.36-7.22-3L133,233.19l-4.83-6.07-3.31-4.18-5.92-19.83-.76-9.19" transform="translate(-94.08 -79.63)"/><path class="cls-7" d="M236,200.53s.11,2.69.47,7.08c1.36,16.43,6.18,56.67,21.49,69.16,0,0,18.25-1.4,24-24.77L268.8,263.7,259,265.5l-7.29-16.27-9.82-22.74" transform="translate(-94.08 -79.63)"/><path class="cls-7" d="M221.83,267.71s-.15.65-.36,1.79c-1.29,6.79-5,30.67,5.59,32.42,12.39,2,16.22-13.53,16.22-13.53L236,293.14l-3.74,1.76-6.09-3.4-.13-4.64-3-7" transform="translate(-94.08 -79.63)"/><path class="cls-7" d="M158.89,246.26s-20.85,16.6-27.57,27.06l1.36-9.78,4.06-9.15,6.42-6.32,1.52-4h8.6l4.55,1.69" transform="translate(-94.08 -79.63)"/><path class="cls-7" d="M155.4,277.15s-7.57,19.66-4.68,32l-4.5-18.29-.54-6.64,4-3.07" transform="translate(-94.08 -79.63)"/><polyline class="cls-7" points="118.46 296.96 142.94 299.27 144.68 284.2 144.68 274.88 115.11 278.07 118.46 296.96"/><path class="cls-7" d="M312.72,291l23.87,1.53S316.65,306,315.72,306s-9.44,2.11-9.44,2.11l1.08-4.2" transform="translate(-94.08 -79.63)"/><path class="cls-7" d="M335.81,237.4s-18,23.21-22.19,28.1,0,6,0,6l.55,6.29,4-5.27,14.59-26.35,3.08-8.81" transform="translate(-94.08 -79.63)"/><path class="cls-8" d="M177,173.49s7,10,7.34,19.41,2.87,6.25,2.87,6.25l1.61-8.68-.78-8.1-1.39-6.9-5.7-.57" transform="translate(-94.08 -79.63)"/><path class="cls-9" d="M156,185.57s5.51,24.56,15.47,28.2-6-.45-6-.45l-7.66-5.74L155.74,202v-4.93l-.8-7.07.3-4.43" transform="translate(-94.08 -79.63)"/><path class="cls-9" d="M164,171.39s-.7,25.27,5.11,31.66v-3.7l-1.7-14.18-.54-6.82,1.21-5.75,1-4.09-3.32,1.6Z" transform="translate(-94.08 -79.63)"/><path class="cls-7" d="M153.87,184s-6.77,35.24,9.06,39.19,21.85-11.92,21.85-11.92l-12.5,5.33-11.56-6.73-6.85-9.65" transform="translate(-94.08 -79.63)"/><path class="cls-7" d="M165.82,337.44s34.77,19.88,110.69,1.67L266,345.24l-10.22,4.42-9.36,1.88L234.49,355l-17.7,1.91H204.17s-15.49-4.5-16-4.67-8.82-2.49-8.82-2.49l-5.3-3.65" transform="translate(-94.08 -79.63)"/><path class="cls-10" d="M120.34,168.9s-14.81,71,41.11,77.36" transform="translate(-94.08 -79.63)"/><path class="cls-10" d="M228.72,173.62s20.56,81.83,32.3,93.32c0,0,15.06,1.28,33.19-42.38S270,117.07,240.08,97.66,179.32,78,154.3,91.54s-32.94,28.08-36.77,37.53-20.42,65.62-20.94,82.21,19.15,47.49,35.75,54.38" transform="translate(-94.08 -79.63)"/><path class="cls-10" d="M146.64,243.37S133.53,259.88,129.53,274s-6,30.3,27.4,1" transform="translate(-94.08 -79.63)"/><path class="cls-10" d="M294.21,224.56c19.15,9.7,46.64,103.15-50,129.36s-97.95-70.11-97.95-70.11" transform="translate(-94.08 -79.63)"/><path class="cls-10" d="M309.08,248.22s14.11-21.49,20.24-41.79,8-22.08,9.32-22,10.55,19.15-3.07,53.53-22.52,40.86-22.52,40.86,29.8-6.81,31.84,2.25-29.45,26.38-39.75,28.26" transform="translate(-94.08 -79.63)"/><path class="cls-10" d="M209.19,358.44s5.36,40.63,14.94,40.5,15.4-27.74,13.89-43.49" transform="translate(-94.08 -79.63)"/><path class="cls-10" d="M223.72,255.2s-4.23,39.32,8.7,38.8,16.51-27.06,16.51-27.06" transform="translate(-94.08 -79.63)"/><path class="cls-10" d="M137.32,123.83s4-13.27,13.66-5.61" transform="translate(-94.08 -79.63)"/><path class="cls-10" d="M214.21,118.92s-4-13.28-13.66-5.62" transform="translate(-94.08 -79.63)"/><ellipse class="cls-11" cx="45.4" cy="74.78" rx="17.23" ry="19.6"/><ellipse class="cls-11" cx="115.62" cy="70.07" rx="20.68" ry="21.41"/><ellipse class="cls-12" cx="51.85" cy="70.63" rx="6.45" ry="13.15"/><ellipse class="cls-12" cx="104.4" cy="66.9" rx="6.45" ry="13.15"/><path class="cls-10" d="M190.93,167.56s2.18,6.81-6.63,7-10-6.85-15.51-6.54-7.86,7.22-12.83,7.22-5.54-5.66-5.54-5.66" transform="translate(-94.08 -79.63)"/><path class="cls-10" d="M156,175.22s-7.62,20.66,3.27,33.34,26.3,4.76,28.68-7.41-.88-26.94-.88-26.94" transform="translate(-94.08 -79.63)"/><path class="cls-13" d="M169.19,171.39s-4.6,20,.68,31.13" transform="translate(-94.08 -79.63)"/><ellipse class="cls-12" cx="74" cy="78.13" rx="6.64" ry="3.35"/><path class="cls-10" d="M321.67,225.61s3.26-6.33,7-3.61-1.62,6.39,1.87,7.32,4.51-4.08,7.83-2.46" transform="translate(-94.08 -79.63)"/></svg>